<?xml version="1.0" encoding="UTF-8"?>
<svg width="197px" height="170px" viewBox="0 0 197 170" version="1.1" xmlns="http://www.w3.org/2000/svg" xmlns:xlink="http://www.w3.org/1999/xlink">
    <!-- Generator: Sketch 50.2 (55047) - http://www.bohemiancoding.com/sketch -->
    <title>Path</title>
    <desc>Created with Sketch.</desc>
    <defs></defs>
    <g id="Page-1" stroke="none" stroke-width="1" fill="none" fill-rule="evenodd">
        <path d="M73.2148437,8.3671875 C104.699961,8.3671875 110.82532,22.0383457 139.195312,48.046875 C142.60229,51.1702619 143.9522,56.2378142 147.601562,59.0742188 C149.382425,60.4583635 152.221897,59.0016659 154.328125,59.8085938 C168.694009,65.3123826 177.43843,83.5753136 184.050781,94.3828125 C185.710544,97.0955975 200.161603,122.205863 195.21875,130.921875 C189.715153,140.626677 172.097899,153.830229 159.429688,150.167969 C155.656065,149.07705 155.784413,140.093845 151.972656,141.042969 C9.52403341,176.512551 241.029925,147.424242 78.0078125,167.976562 C51.3745125,171.334243 61.7423176,162.645041 44.6015625,150.722656 C41.8142792,148.78394 38.9382025,146.889829 35.796875,145.601562 C27.6067922,142.242788 17.5044773,142.53042 10.7304688,136.832031 C5.66917363,132.574401 1.9440264,101.258163 1.69140625,97.6679688 C-1.59325073,50.9869841 15.1940693,42.1643506 47.71875,13.8632812 C63.2792653,0.323433613 49.9023143,5.26098411 67.5976563,1.46484375 L73.2148437,8.3671875 Z" id="Path" stroke="#979797"></path>
    </g>
</svg>